<svg class="hidden">
  <symbol fill="none" xmlns="http://www.w3.org/2000/svg" viewBox="0 0 8 8" id="Star">
    <path fill-rule="evenodd" clip-rule="evenodd" d="M4.00005 0.333328C4.12692 0.333328 4.2428 0.405352 4.29895 0.51912L5.25147 2.44882L7.38159 2.76017C7.50711 2.77851 7.61134 2.86652 7.65047 2.98718C7.68959 3.10785 7.65683 3.24027 7.56596 3.32878L6.02489 4.82978L6.38859 6.95031C6.41004 7.07538 6.35862 7.20177 6.25596 7.27635C6.1533 7.35092 6.0172 7.36075 5.9049 7.30169L4.00005 6.29994L2.0952 7.30169C1.9829 7.36075 1.8468 7.35092 1.74414 7.27635C1.64148 7.20177 1.59006 7.07538 1.61151 6.95031L1.97521 4.82978L0.434139 3.32878C0.343267 3.24027 0.310509 3.10785 0.349635 2.98718C0.388761 2.86652 0.492988 2.77851 0.618508 2.76017L2.74863 2.44882L3.70115 0.51912C3.7573 0.405352 3.87318 0.333328 4.00005 0.333328ZM4.00005 1.41975L3.26895 2.90087C3.22044 2.99915 3.12671 3.06731 3.01826 3.08316L1.38285 3.3222L2.56596 4.47454C2.64459 4.55112 2.68047 4.6615 2.66192 4.76968L2.38278 6.39722L3.8449 5.6283C3.94203 5.57723 4.05807 5.57723 4.1552 5.6283L5.61732 6.39722L5.33818 4.76968C5.31963 4.6615 5.35552 4.55112 5.43414 4.47454L6.61725 3.3222L4.98184 3.08316C4.87339 3.06731 4.77966 2.99915 4.73115 2.90087L4.00005 1.41975Z" fill="#F2994A"></path>
    <path d="M2.33333 5L1 3L3 2.66667L4 1L5 2.66667L7 3.33333L5.66667 4.66667L6 7L4 6L2 7L2.33333 5Z" fill="#F2994A"></path>
  </symbol>
  <symbol fill="none" xmlns="http://www.w3.org/2000/svg" viewBox="0 0 8 8" id="user">
    <path fill-rule="evenodd" clip-rule="evenodd" d="M2.60427 9.02094C3.15125 8.47396 3.89312 8.16667 4.66667 8.16667H9.33333C10.1069 8.16667 10.8487 8.47396 11.3957 9.02094C11.9427 9.56792 12.25 10.3098 12.25 11.0833V12.25C12.25 12.5722 11.9888 12.8333 11.6667 12.8333C11.3445 12.8333 11.0833 12.5722 11.0833 12.25V11.0833C11.0833 10.6192 10.899 10.1741 10.5708 9.8459C10.2426 9.51771 9.79746 9.33333 9.33333 9.33333H4.66667C4.20254 9.33333 3.75742 9.51771 3.42923 9.8459C3.10104 10.1741 2.91667 10.6192 2.91667 11.0833V12.25C2.91667 12.5722 2.6555 12.8333 2.33333 12.8333C2.01117 12.8333 1.75 12.5722 1.75 12.25V11.0833C1.75 10.3098 2.05729 9.56792 2.60427 9.02094Z" fill="white"/>
    <path fill-rule="evenodd" clip-rule="evenodd" d="M6.99992 2.33333C6.03342 2.33333 5.24992 3.11683 5.24992 4.08333C5.24992 5.04983 6.03342 5.83333 6.99992 5.83333C7.96642 5.83333 8.74992 5.04983 8.74992 4.08333C8.74992 3.11683 7.96642 2.33333 6.99992 2.33333ZM4.08325 4.08333C4.08325 2.4725 5.38909 1.16666 6.99992 1.16666C8.61075 1.16666 9.91659 2.4725 9.91659 4.08333C9.91659 5.69416 8.61075 7 6.99992 7C5.38909 7 4.08325 5.69416 4.08325 4.08333Z" fill="white"/>
     <symbol fill="none" xmlns="http://www.w3.org/2000/svg" viewBox="0 0 8 8" id="Star">
    <path ...></path>
     <symbol fill="none" xmlns="http://www.w3.org/2000/svg" viewBox="0 0 8 8" id="Star">
    <path ...></path>
     <symbol fill="none" xmlns="http://www.w3.org/2000/svg" viewBox="0 0 8 8" id="Star">
    <path ...></path>
     <symbol fill="none" xmlns="http://www.w3.org/2000/svg" viewBox="0 0 8 8" id="Star">
    <path ...></path>
  </symbol>
</svg>